<?xml version="1.0" standalone="no"?>
<!DOCTYPE svg PUBLIC "-//W3C//DTD SVG 20010904//EN"
 "http://www.w3.org/TR/2001/REC-SVG-20010904/DTD/svg10.dtd">
<svg version="1.0" xmlns="http://www.w3.org/2000/svg"
 width="48.000000pt" height="48.000000pt" viewBox="0 0 48.000000 48.000000"
 preserveAspectRatio="xMidYMid meet">

<g transform="translate(0.000000,48.000000) scale(0.100000,-0.100000)"
fill="#000000" stroke="none">
<path d="M102 429 c-20 -8 -23 -14 -17 -41 4 -18 14 -44 24 -57 17 -24 17 -27
-11 -82 l-28 -57 17 -43 c10 -24 23 -51 28 -59 15 -24 100 -70 127 -69 43 1
111 52 135 100 29 58 28 87 -3 142 l-25 46 20 28 c30 43 31 75 1 90 -33 17
-91 16 -116 -1 -17 -12 -22 -12 -39 0 -21 16 -78 17 -113 3z m102 -25 c9 -3
16 -15 16 -26 0 -19 -1 -19 -26 1 -42 33 -64 26 -24 -7 33 -28 35 -52 4 -52
-22 0 -44 25 -54 60 -8 30 -8 30 30 30 21 0 45 -3 54 -6z m156 -19 c0 -47 -70
-86 -78 -43 -2 11 9 23 30 34 20 11 28 19 20 22 -8 2 -27 -5 -43 -17 -33 -24
-39 -26 -39 -8 0 24 24 37 67 37 39 0 43 -2 43 -25z"/>
</g>
</svg>
