<?xml version="1.0" standalone="no"?>
<!DOCTYPE svg PUBLIC "-//W3C//DTD SVG 20010904//EN"
 "http://www.w3.org/TR/2001/REC-SVG-20010904/DTD/svg10.dtd">
<svg version="1.0" xmlns="http://www.w3.org/2000/svg"
 width="224.000000pt" height="224.000000pt" viewBox="0 0 224.000000 224.000000"
 preserveAspectRatio="xMidYMid meet">
<metadata>
Created by potrace 1.14, written by Peter Selinger 2001-2017
</metadata>
<g transform="translate(0.000000,224.000000) scale(0.100000,-0.100000)"
fill="#000000" stroke="none">
<path d="M625 2052 c-11 -2 -27 -10 -35 -17 -8 -7 -36 -16 -61 -20 -64 -9
-120 -44 -144 -87 -18 -33 -18 -41 -6 -70 8 -18 17 -63 20 -99 5 -50 12 -74
34 -102 15 -19 27 -42 27 -49 0 -25 50 -87 95 -118 25 -17 45 -35 45 -40 0 -6
-16 -30 -35 -55 -19 -25 -41 -67 -49 -93 -7 -26 -23 -65 -35 -87 -11 -22 -21
-45 -21 -51 0 -6 -12 -21 -26 -35 -14 -13 -38 -44 -52 -69 -25 -42 -27 -53
-27 -166 0 -114 1 -122 26 -155 14 -19 33 -54 43 -79 10 -25 21 -49 26 -55 4
-5 13 -34 19 -64 24 -113 125 -227 234 -263 18 -6 57 -27 87 -46 163 -106 189
-119 258 -132 111 -22 170 -3 362 118 41 27 94 56 118 65 102 41 183 129 216
235 29 92 66 183 86 212 73 102 65 261 -18 367 -45 58 -93 149 -116 219 -9 28
-32 69 -51 91 -33 39 -34 41 -16 57 9 9 22 16 29 16 16 0 80 79 109 135 14 28
32 63 40 78 8 15 13 46 12 70 -2 26 3 54 15 76 41 76 -23 156 -141 176 -23 3
-58 15 -79 25 -28 15 -59 19 -140 19 -57 0 -117 -4 -132 -10 -15 -6 -39 -12
-54 -14 -40 -6 -85 -31 -135 -78 l-45 -42 -27 31 c-63 74 -182 113 -336 112
-55 -1 -109 -3 -120 -6z m129 -118 c37 -18 36 -18 36 7 0 19 4 21 33 15 17 -3
43 -18 56 -33 20 -23 25 -25 35 -12 13 19 31 14 71 -19 52 -42 75 -90 75 -154
0 -51 -3 -60 -25 -74 -26 -17 -26 -16 -75 34 -62 62 -126 105 -199 133 -118
44 -152 33 -55 -17 31 -16 68 -35 83 -43 14 -8 61 -49 103 -90 66 -65 77 -80
71 -101 -9 -36 -18 -46 -68 -69 -76 -36 -215 -22 -215 22 0 12 -15 25 -44 37
-53 24 -70 43 -61 69 4 14 -2 25 -24 40 -16 12 -34 34 -39 50 -9 27 -8 30 10
33 33 5 32 21 -5 76 l-35 51 32 13 c17 7 57 12 89 11 49 -1 57 1 52 15 -13 34
36 37 99 6z m676 6 c0 -23 8 -25 35 -6 48 32 105 29 105 -6 0 -18 5 -20 31
-14 33 6 116 -11 125 -26 3 -5 -4 -20 -15 -32 -12 -13 -24 -40 -28 -60 -5 -32
-3 -36 16 -36 11 0 21 -3 21 -7 0 -15 -37 -64 -59 -79 -15 -11 -19 -22 -15
-39 5 -19 -1 -28 -33 -48 -21 -13 -46 -26 -55 -30 -10 -3 -18 -13 -18 -21 0
-24 -54 -46 -112 -46 -74 0 -133 25 -158 66 -19 33 -19 35 -2 63 32 53 146
145 229 186 118 58 105 77 -20 32 -92 -34 -149 -70 -211 -134 -61 -63 -78 -65
-102 -7 -26 61 11 153 82 202 51 37 54 37 54 17 0 -21 10 -18 50 15 42 35 80
40 80 10z"/>
</g>
</svg>
