<?xml version="1.0" standalone="no"?>
<!DOCTYPE svg PUBLIC "-//W3C//DTD SVG 20010904//EN"
 "http://www.w3.org/TR/2001/REC-SVG-20010904/DTD/svg10.dtd">
<svg version="1.0" xmlns="http://www.w3.org/2000/svg"
 width="224.000000pt" height="224.000000pt" viewBox="0 0 224.000000 224.000000"
 preserveAspectRatio="xMidYMid meet">
<metadata>
Created by potrace 1.14, written by Peter Selinger 2001-2017
</metadata>
<g transform="translate(0.000000,224.000000) scale(0.100000,-0.100000)"
fill="#000000" stroke="none">
<path d="M689 2061 c-46 -4 -85 -13 -102 -23 -14 -10 -38 -18 -53 -18 -15 0
-50 -11 -78 -25 -79 -39 -105 -99 -70 -166 8 -16 12 -39 9 -49 -10 -32 6 -88
36 -126 16 -20 29 -45 29 -55 0 -20 77 -104 119 -130 l24 -15 -38 -54 c-20
-29 -44 -74 -52 -99 -26 -79 -66 -154 -105 -200 -48 -56 -63 -104 -62 -212 0
-70 4 -94 23 -130 64 -121 89 -178 95 -216 10 -54 66 -149 114 -191 20 -18 66
-47 102 -64 36 -17 83 -43 105 -58 47 -32 147 -91 191 -113 42 -21 121 -31
188 -23 43 6 81 23 183 83 70 42 130 79 133 83 3 4 20 12 39 19 19 6 61 28 92
48 62 41 117 120 139 202 6 24 15 51 20 60 5 9 16 36 25 61 9 25 26 61 39 80
34 52 46 96 46 164 0 80 -22 149 -63 200 -46 57 -85 129 -112 207 -12 37 -37
86 -56 109 -32 41 -33 43 -15 54 45 26 106 90 126 134 12 26 31 59 42 74 13
19 19 45 20 79 0 28 7 67 15 87 19 46 10 92 -25 124 -32 30 -94 58 -130 58
-13 0 -39 8 -56 19 -42 25 -212 35 -270 16 -23 -7 -57 -16 -76 -20 -47 -10
-114 -50 -146 -88 l-26 -31 -31 37 c-33 38 -120 87 -155 87 -11 0 -36 7 -55
15 -37 15 -49 16 -178 6z"/>
</g>
</svg>
