<?xml version="1.0" standalone="no"?>
<!DOCTYPE svg PUBLIC "-//W3C//DTD SVG 20010904//EN"
 "http://www.w3.org/TR/2001/REC-SVG-20010904/DTD/svg10.dtd">
<svg version="1.0" xmlns="http://www.w3.org/2000/svg"
 width="400.000000pt" height="400.000000pt" viewBox="0 0 400.000000 400.000000"
 preserveAspectRatio="xMidYMid meet">
<metadata>
Created by potrace 1.14, written by Peter Selinger 2001-2017
</metadata>
<g transform="translate(0.000000,400.000000) scale(0.100000,-0.100000)"
fill="#000000" stroke="none">
<path d="M1518 3424 c-4 -3 -56 -7 -115 -8 -97 -1 -113 -4 -158 -29 -27 -15
-62 -27 -77 -27 -40 0 -118 -29 -160 -59 -76 -54 -100 -146 -54 -213 21 -32
23 -40 13 -75 -13 -51 4 -118 48 -182 18 -25 41 -66 52 -92 25 -56 73 -111
121 -140 20 -12 47 -33 59 -47 l22 -26 -44 -48 c-48 -54 -89 -132 -100 -191
-10 -50 -79 -183 -119 -227 -136 -150 -160 -399 -56 -564 17 -26 38 -69 46
-95 9 -25 28 -68 43 -96 16 -27 31 -70 34 -94 9 -69 70 -182 132 -244 51 -51
160 -117 215 -130 14 -4 50 -25 80 -48 30 -23 82 -55 115 -71 33 -16 79 -44
102 -62 63 -51 143 -78 249 -83 134 -8 239 23 334 97 19 15 60 40 90 55 30 15
79 45 108 67 29 22 75 46 101 54 65 19 161 84 211 142 55 65 87 128 109 214
11 40 28 89 40 109 11 19 29 60 40 90 10 30 30 71 44 92 45 66 62 132 62 242
0 139 -39 248 -115 320 -32 31 -120 200 -120 231 0 32 -59 146 -101 196 -40
47 -40 48 -22 72 10 14 30 30 46 37 39 16 123 112 138 156 6 20 26 55 44 78
40 53 60 121 52 180 -5 35 -2 54 14 85 41 78 21 157 -53 210 -43 31 -123 60
-167 60 -15 0 -49 12 -76 27 -43 24 -64 28 -155 31 -166 7 -202 5 -250 -13
-25 -9 -63 -19 -84 -21 -62 -8 -125 -44 -194 -109 l-64 -61 -58 57 c-64 62
-147 109 -196 109 -17 0 -51 9 -75 19 -48 21 -140 36 -151 25z m-46 -180 c38
-20 58 -18 58 6 0 16 7 20 33 20 32 0 97 -32 97 -48 0 -5 11 -14 24 -20 21
-10 26 -8 31 8 8 26 17 25 63 -4 150 -96 204 -302 97 -372 -23 -15 -25 -14
-92 56 -109 116 -236 192 -377 224 -79 19 -86 19 -86 6 0 -5 30 -24 68 -40
132 -61 273 -169 368 -286 43 -52 41 -80 -9 -127 -53 -49 -111 -69 -207 -70
-70 -1 -92 2 -127 21 -32 16 -42 28 -40 43 2 17 -8 25 -50 40 -34 13 -65 34
-88 61 -32 38 -33 42 -17 54 15 11 12 16 -29 53 -45 39 -82 97 -73 113 3 4 16
8 30 8 17 0 24 5 24 20 0 33 -29 93 -61 126 l-30 31 28 19 c22 15 49 19 128
21 92 2 122 11 96 28 -6 3 -11 10 -11 15 0 23 104 18 152 -6z m994 10 c-11
-29 4 -34 42 -15 46 23 103 34 136 25 21 -5 24 -10 20 -32 l-5 -27 98 0 c78 0
105 -4 126 -18 l28 -18 -34 -39 c-30 -35 -57 -96 -57 -129 0 -6 14 -11 30 -11
17 0 30 -4 30 -9 0 -26 -23 -61 -69 -106 -45 -44 -50 -51 -35 -62 27 -20 -16
-68 -96 -106 -53 -25 -68 -37 -67 -52 5 -57 -187 -81 -288 -36 -27 12 -60 32
-73 44 -24 22 -52 68 -52 86 0 20 156 174 229 225 70 50 155 97 225 125 21 9
26 15 18 23 -24 24 -217 -40 -315 -105 -34 -22 -97 -76 -140 -119 l-77 -79
-30 23 c-56 44 -64 132 -21 222 45 92 191 208 191 151 0 -23 16 -18 66 20 35
27 55 35 86 35 33 0 39 -3 34 -16z"/>
</g>
</svg>
